<svg width="601" height="494" viewBox="0 0 601 494" fill="none" xmlns="http://www.w3.org/2000/svg">
<g clip-path="url(#clip0_208_3294)">
<path opacity="0.18" d="M130.514 105.544C95.0001 124.625 58.4083 144.609 33.6546 176.565C18.7892 195.779 8.8844 218.651 3.66876 242.449C-5.26529 283.069 1.34887 330.161 32.0833 358.096C42.7779 367.86 55.8581 374.753 69.3497 380.049C97.3159 391.006 127.376 395.489 157.3 393.164C181.873 391.236 206.404 384.724 230.854 387.827C260.675 391.6 286.712 409.143 314.493 420.694C349.014 434.991 386.602 440.148 423.668 435.671C433.013 434.529 442.474 432.701 450.692 428.083C460.449 422.597 467.68 413.636 475.372 405.444C492.715 386.904 513.173 371.585 535.804 360.189C547.675 354.215 560.254 349.259 570.561 340.851C597.709 318.758 602.357 279.221 600.778 244.162C599.198 209.102 591.342 170.401 563.445 149.11C557.218 144.36 550.209 140.678 544.171 135.672C524.032 118.973 518.01 91.0215 505.111 68.175C476.186 17.087 411.649 -5.27953 353.545 1.04235C270.284 10.1032 202.094 67.0911 130.514 105.544Z" fill="#E81976"/>
<path d="M566.745 244.518C565.988 251.551 557.358 263.359 545.422 276.632C525.859 298.345 497.436 323.955 480.341 338.874C471.522 346.578 465.723 351.435 465.723 351.435V217.766C465.723 217.766 486.421 191.105 501.459 189.392C516.497 187.679 546.845 205.37 546.845 205.37C546.845 205.37 569.279 220.058 566.745 244.518Z" fill="#E81976"/>
<path d="M545.422 276.632C525.859 298.345 497.436 323.955 480.341 338.874C479.066 336.83 478.811 334.05 478.696 331.534C478.243 318.965 478.35 306.379 478.466 293.802C478.572 281.588 478.679 269.383 479.444 257.195C480.168 245.842 481.551 234.232 486.717 224.096C487.883 225.144 488.845 226.401 489.555 227.803C496.062 239.048 500.175 251.452 504.289 263.765C506.323 269.833 508.358 275.926 510.393 282.043C514.954 279.524 519.03 276.203 522.428 272.238C525.554 268.754 528.343 264.989 531.214 261.299C533.222 258.717 537.137 251.369 540.263 254.133C545.331 258.576 545.742 268.746 545.422 276.632Z" fill="url(#paint0_linear_208_3294)"/>
<path d="M480.917 41.7705H143.965V434.298H480.917V41.7705Z" fill="#E81976"/>
<path d="M480.917 41.7705H143.965V434.298H480.917V41.7705Z" fill="url(#paint1_linear_208_3294)"/>
<path d="M434.609 60.7444L143.965 86.9504C145.273 86.9504 143.965 50.5417 143.965 41.7705H450.404V44.8487C450.404 49.0631 448.741 53.105 445.779 56.0857C442.817 59.0665 438.799 60.7422 434.609 60.7444Z" fill="url(#paint2_linear_208_3294)"/>
<path d="M480.917 86.9507H143.965V479.478H480.917V86.9507Z" fill="#E81976"/>
<path d="M191.868 86.9507H143.965V479.478H191.868V86.9507Z" fill="url(#paint3_linear_208_3294)"/>
<path d="M220.973 160.314H162.771V218.858H220.973V160.314Z" fill="white"/>
<path d="M282.41 160.314H224.207V218.858H282.41V160.314Z" fill="white"/>
<path d="M343.854 160.314H285.651V218.858H343.854V160.314Z" fill="white"/>
<path d="M405.29 160.314H347.087V218.858H405.29V160.314Z" fill="white"/>
<path d="M220.973 221.431H162.771V279.975H220.973V221.431Z" fill="white"/>
<path d="M282.41 221.431H224.207V279.975H282.41V221.431Z" fill="white"/>
<path d="M343.854 221.431H285.651V279.975H343.854V221.431Z" fill="white"/>
<path d="M405.29 221.431H347.087V279.975H405.29V221.431Z" fill="white"/>
<path d="M220.973 282.548H162.771V341.092H220.973V282.548Z" fill="white"/>
<path d="M282.41 282.548H224.207V341.092H282.41V282.548Z" fill="white"/>
<path d="M343.854 282.548H285.651V341.092H343.854V282.548Z" fill="white"/>
<path d="M405.29 282.548H347.087V341.092H405.29V282.548Z" fill="white"/>
<path d="M220.973 343.665H162.771V402.209H220.973V343.665Z" fill="white"/>
<path d="M282.41 343.665H224.207V402.209H282.41V343.665Z" fill="white"/>
<path d="M343.854 343.665H285.651V402.209H343.854V343.665Z" fill="white"/>
<path d="M405.29 343.665H347.087V402.209H405.29V343.665Z" fill="white"/>
<path d="M220.973 404.782H162.771V463.326H220.973V404.782Z" fill="white"/>
<path d="M282.41 404.782H224.207V463.326H282.41V404.782Z" fill="white"/>
<path d="M343.854 404.782H285.651V463.326H343.854V404.782Z" fill="white"/>
<path d="M465.698 160.314H407.495V218.858H465.698V160.314Z" fill="white"/>
<path d="M465.698 99.1973H407.495V157.741H465.698V99.1973Z" fill="white"/>
<path d="M405.29 99.1973H347.087V157.741H405.29V99.1973Z" fill="white"/>
<path d="M465.698 221.431H407.495V279.975H465.698V221.431Z" fill="white"/>
<path d="M465.698 282.548H407.495V341.092H465.698V282.548Z" fill="white"/>
<path d="M465.698 343.665H407.495V402.209H465.698V343.665Z" fill="white"/>
<path d="M170.067 25.8999V57.6417C170.067 59.3545 172.231 60.7447 174.888 60.7447C177.554 60.7447 179.709 59.3545 179.709 57.6417V25.8999C179.709 24.187 177.554 22.7969 174.888 22.7969C172.231 22.7969 170.067 24.187 170.067 25.8999ZM216.153 25.8999V57.6417C216.153 59.3545 218.308 60.7447 220.973 60.7447C223.639 60.7447 225.794 59.3545 225.794 57.6417V25.8999C225.794 24.187 223.639 22.7969 220.973 22.7969C218.308 22.7969 216.153 24.187 216.153 25.8999ZM262.238 25.8999V57.6417C262.238 59.3545 264.393 60.7447 267.059 60.7447C269.724 60.7447 271.879 59.3545 271.879 57.6417V25.8999C271.879 24.187 269.724 22.7969 267.059 22.7969C264.393 22.7969 262.238 24.187 262.238 25.8999ZM308.323 25.8999V57.6417C308.323 59.3545 310.478 60.7447 313.144 60.7447C315.801 60.7447 317.965 59.3545 317.965 57.6417V25.8999C317.965 24.187 315.801 22.7969 313.144 22.7969C310.478 22.7969 308.323 24.187 308.323 25.8999ZM354.4 25.8999V57.6417C354.4 59.3545 356.564 60.7447 359.229 60.7447C361.886 60.7447 364.05 59.3545 364.05 57.6417V25.8999C364.05 24.187 361.886 22.7969 359.229 22.7969C356.564 22.7969 354.4 24.187 354.4 25.8999ZM400.485 25.8999V57.6417C400.485 59.3545 402.649 60.7447 405.306 60.7447C407.971 60.7447 410.135 59.3545 410.135 57.6417V25.8999C410.135 24.187 407.971 22.7969 405.306 22.7969C402.649 22.7969 400.485 24.187 400.485 25.8999ZM445.583 25.8999V57.6417C445.583 59.3545 447.747 60.7447 450.404 60.7447C453.07 60.7447 455.225 59.3545 455.225 57.6417V25.8999C455.225 24.187 453.07 22.7969 450.404 22.7969C447.747 22.7969 445.583 24.187 445.583 25.8999Z" fill="#E81976"/>
<path d="M488.592 41.7705H480.925V479.478H488.592V41.7705Z" fill="url(#paint4_linear_208_3294)"/>
<path d="M360.53 107.778C360.531 108.7 360.261 109.602 359.753 110.369C359.244 111.137 358.521 111.735 357.674 112.089C356.828 112.442 355.896 112.535 354.997 112.356C354.097 112.176 353.271 111.732 352.623 111.08C351.975 110.428 351.534 109.597 351.355 108.693C351.177 107.788 351.269 106.851 351.621 105.999C351.972 105.148 352.567 104.42 353.33 103.909C354.093 103.398 354.99 103.126 355.906 103.127C357.132 103.13 358.307 103.62 359.173 104.492C360.04 105.364 360.528 106.545 360.53 107.778Z" fill="url(#paint5_linear_208_3294)"/>
<path d="M360.53 168.903C360.531 169.825 360.261 170.727 359.753 171.495C359.244 172.262 358.521 172.86 357.674 173.214C356.828 173.568 355.896 173.661 354.997 173.481C354.097 173.302 353.271 172.858 352.623 172.206C351.975 171.554 351.534 170.723 351.355 169.818C351.177 168.914 351.269 167.977 351.621 167.125C351.972 166.273 352.567 165.546 353.33 165.035C354.093 164.523 354.99 164.251 355.906 164.253C357.132 164.255 358.307 164.746 359.173 165.617C360.04 166.489 360.528 167.671 360.53 168.903Z" fill="url(#paint6_linear_208_3294)"/>
<path d="M371.841 168.903C371.843 169.825 371.572 170.727 371.064 171.495C370.556 172.262 369.833 172.86 368.986 173.214C368.139 173.568 367.207 173.661 366.308 173.481C365.409 173.302 364.583 172.858 363.935 172.206C363.286 171.554 362.845 170.723 362.667 169.818C362.488 168.914 362.581 167.977 362.932 167.125C363.284 166.273 363.879 165.546 364.642 165.035C365.405 164.523 366.301 164.251 367.218 164.253C368.443 164.255 369.618 164.746 370.485 165.617C371.351 166.489 371.839 167.671 371.841 168.903Z" fill="url(#paint7_linear_208_3294)"/>
<path d="M383.218 168.903C383.22 169.825 382.949 170.727 382.441 171.495C381.933 172.262 381.209 172.86 380.363 173.214C379.516 173.568 378.584 173.661 377.685 173.481C376.786 173.302 375.96 172.858 375.312 172.206C374.663 171.554 374.222 170.723 374.044 169.818C373.865 168.914 373.958 167.977 374.309 167.125C374.661 166.273 375.256 165.546 376.019 165.035C376.782 164.523 377.678 164.251 378.595 164.253C379.82 164.255 380.995 164.746 381.862 165.617C382.728 166.489 383.216 167.671 383.218 168.903Z" fill="url(#paint8_linear_208_3294)"/>
<path d="M360.53 292.015C360.53 292.936 360.258 293.837 359.749 294.604C359.239 295.37 358.515 295.967 357.669 296.319C356.822 296.672 355.89 296.764 354.992 296.583C354.093 296.403 353.268 295.958 352.62 295.306C351.973 294.654 351.532 293.823 351.355 292.918C351.177 292.014 351.27 291.077 351.622 290.226C351.973 289.375 352.568 288.648 353.331 288.137C354.094 287.626 354.99 287.354 355.906 287.356C356.514 287.356 357.116 287.477 357.678 287.711C358.239 287.945 358.749 288.288 359.178 288.721C359.608 289.154 359.948 289.667 360.18 290.232C360.412 290.798 360.531 291.403 360.53 292.015Z" fill="url(#paint9_linear_208_3294)"/>
<path d="M172.544 296.665C175.098 296.665 177.168 294.583 177.168 292.015C177.168 289.446 175.098 287.364 172.544 287.364C169.991 287.364 167.921 289.446 167.921 292.015C167.921 294.583 169.991 296.665 172.544 296.665Z" fill="#D85B53"/>
<path d="M371.841 292.015C371.841 292.936 371.569 293.837 371.06 294.604C370.551 295.37 369.827 295.967 368.98 296.319C368.133 296.672 367.202 296.764 366.303 296.583C365.404 296.403 364.579 295.958 363.932 295.306C363.284 294.654 362.844 293.823 362.666 292.918C362.488 292.014 362.581 291.077 362.933 290.226C363.285 289.375 363.88 288.648 364.643 288.137C365.405 287.626 366.302 287.354 367.218 287.356C367.826 287.356 368.428 287.477 368.989 287.711C369.551 287.945 370.061 288.288 370.49 288.721C370.919 289.154 371.26 289.667 371.492 290.232C371.724 290.798 371.842 291.403 371.841 292.015Z" fill="url(#paint10_linear_208_3294)"/>
<path d="M383.218 292.015C383.218 292.936 382.946 293.837 382.437 294.604C381.928 295.37 381.204 295.967 380.357 296.319C379.51 296.672 378.579 296.764 377.68 296.583C376.781 296.403 375.956 295.958 375.309 295.306C374.661 294.654 374.221 293.823 374.043 292.918C373.865 292.014 373.958 291.077 374.31 290.226C374.662 289.375 375.257 288.648 376.019 288.137C376.782 287.626 377.678 287.354 378.595 287.356C379.203 287.356 379.805 287.477 380.366 287.711C380.928 287.945 381.438 288.288 381.867 288.721C382.296 289.154 382.637 289.667 382.869 290.232C383.1 290.798 383.219 291.403 383.218 292.015Z" fill="url(#paint11_linear_208_3294)"/>
<path d="M566.193 166.901C564.901 172.213 566.629 179.578 564.177 184.452C560.064 192.644 548.037 198.08 546.26 207.075C546.153 207.596 532.768 214.083 525.866 211.866C522.255 210.716 520.42 207.174 523.201 199.164C524.073 196.682 528.96 195.755 530.276 193.446L530.004 193.239C523.324 188.167 522.6 177.418 523.982 170.244C525.365 163.07 528.532 156.177 531.929 149.623C534.545 144.576 540.452 141.837 546.112 141.928C553.228 142.052 560.739 144.915 564.441 151.03C567.271 155.689 567.476 161.589 566.193 166.901Z" fill="url(#paint12_linear_208_3294)"/>
<path d="M533.32 128.258C529.676 130.194 525.801 132.478 521.721 131.858C521.617 132.843 521.777 133.839 522.185 134.741C522.593 135.643 523.234 136.419 524.04 136.988L521.507 137.559C521.402 137.565 521.301 137.595 521.209 137.647C521.118 137.699 521.04 137.77 520.98 137.857C520.949 137.949 520.938 138.047 520.948 138.144C520.958 138.242 520.988 138.335 521.038 138.419C521.661 139.882 522.686 141.136 523.991 142.036C523.539 143.012 521.902 142.797 521.342 143.69C521.218 143.956 521.154 144.245 521.154 144.539C521.154 144.832 521.218 145.121 521.342 145.387C521.906 146.931 522.872 148.294 524.139 149.334C522.626 150.989 523.572 154.05 525.661 154.803C527.751 155.556 530.26 154.125 530.975 151.998C531.069 152.955 530.849 153.917 530.35 154.737C537.252 155.829 544.632 156.856 550.982 153.91C550.686 154.571 550.524 155.286 550.505 156.011C552.038 156.494 553.664 156.597 555.244 156.309C555.573 159.718 555.269 163.158 554.347 166.454C553.779 168.506 552.965 170.492 552.603 172.586C552.146 174.694 552.521 176.898 553.648 178.734C554.742 178.635 555.515 177.6 555.935 176.582C556.236 175.521 556.694 174.512 557.292 173.587C558.938 171.651 562.36 172.362 563.684 174.505C565.009 176.649 564.507 179.528 563.24 181.688C562.457 182.962 561.422 184.06 560.2 184.914C558.977 185.768 557.592 186.36 556.132 186.653C556.371 188.961 556.618 191.27 556.856 193.57C561.192 189.433 566.045 185.883 569.945 181.357C573.844 176.831 576.797 171.038 576.296 165.064C575.991 161.382 574.395 157.882 574.272 154.183C574.214 152.528 574.461 150.832 574.395 149.16C574.241 146.497 573.314 143.938 571.727 141.801C570.14 139.663 567.964 138.042 565.469 137.137C563.372 136.417 561.06 136.21 559.201 134.994C556.889 133.488 555.688 130.683 553.393 129.144C550.925 127.489 547.091 126.81 544.22 125.991C540.485 124.948 536.602 126.529 533.32 128.258Z" fill="#563F3D"/>
<path d="M481.567 206.553C481.273 206.734 481.021 206.975 480.825 207.26C480.63 207.545 480.496 207.868 480.432 208.208C480.464 208.565 480.611 208.901 480.85 209.167C481.089 209.432 481.407 209.613 481.756 209.681C482.46 209.805 483.181 209.771 483.87 209.582L488.049 208.754C485.792 210.021 483.918 211.88 482.628 214.133C482.476 214.393 482.402 214.691 482.415 214.992C482.428 215.293 482.528 215.584 482.702 215.829C483.262 216.541 484.208 216.26 484.964 215.962L488.592 214.505L486.124 216.913C485.357 217.601 484.687 218.392 484.134 219.263C483.895 219.674 483.718 220.117 483.607 220.579C483.563 220.775 483.571 220.979 483.629 221.17C483.688 221.362 483.795 221.535 483.94 221.672C484.086 221.81 484.265 221.906 484.459 221.952C484.653 221.999 484.855 221.993 485.047 221.936C486.556 221.509 487.958 220.765 489.16 219.752C488.268 221.009 487.275 222.191 486.19 223.285C485.105 224.386 484.491 225.871 484.479 227.422C484.484 227.589 484.538 227.751 484.635 227.886C484.758 228.007 484.917 228.083 485.088 228.101C486.429 228.324 487.646 227.339 488.658 226.446L492.385 223.045C492.985 222.55 493.514 221.974 493.956 221.332C494.205 220.962 494.345 220.529 494.359 220.083C494.334 219.799 494.237 219.527 494.078 219.292C493.918 219.057 493.7 218.868 493.446 218.742C493.192 218.617 492.911 218.559 492.628 218.575C492.346 218.591 492.072 218.68 491.834 218.833C491.941 218.113 492.22 217.443 492.393 216.74C492.607 216.046 492.56 215.299 492.261 214.638C492.101 214.315 491.826 214.065 491.49 213.938C491.155 213.81 490.784 213.815 490.452 213.951C490.889 213.09 491.168 212.156 491.274 211.196C491.319 210.71 491.229 210.221 491.016 209.784C490.803 209.346 490.474 208.975 490.065 208.713C489.839 208.624 489.632 208.492 489.456 208.324C489.127 207.919 489.39 207.34 489.53 206.835C489.668 206.454 489.707 206.044 489.645 205.643C489.583 205.243 489.422 204.864 489.175 204.543C488.929 204.222 488.607 203.969 488.237 203.807C487.868 203.645 487.464 203.579 487.062 203.616C484.907 203.872 483.138 205.213 481.567 206.553Z" fill="url(#paint13_linear_208_3294)"/>
<path d="M549.065 237.641C558.526 229.234 570.24 235.606 566.127 247.612C557.234 273.587 538.618 333.098 520.939 333.098C497.904 333.098 488.592 292.014 488.592 292.014L499.229 270.36C499.229 270.36 514.275 303.566 521.852 294.58C529.428 285.593 533.904 251.551 548.629 238.03L549.065 237.641Z" fill="#E81976"/>
<path d="M495.741 268.928C495.6 267.001 495.567 265.067 495.642 263.136C495.593 254.707 493.118 246.473 488.518 239.429C488.033 240.128 487.825 240.983 487.934 241.828L488.057 263.806C488.131 265.629 488.009 267.454 487.695 269.251C487.415 270.558 486.938 271.808 486.568 273.098C485.788 275.782 485.509 278.588 485.746 281.373C485.816 282.87 486.218 284.331 486.922 285.651C487.284 286.307 487.794 286.867 488.411 287.287C489.029 287.707 489.736 287.974 490.476 288.067C490.961 288.067 492.944 283.93 493.232 283.367C494.109 281.712 494.932 280.044 495.7 278.361C496.267 277.087 497.477 275.209 497.263 273.777C497.024 272.172 495.938 270.691 495.741 268.928Z" fill="url(#paint14_linear_208_3294)"/>
<path d="M539.703 199.056C537.713 201.307 535.738 203.566 533.747 205.825C532.226 207.75 530.416 209.424 528.384 210.79C527.594 211.26 526.748 211.627 525.866 211.882C522.255 210.732 520.42 207.19 523.201 199.181C524.073 196.698 528.96 195.771 530.276 193.463L530.004 193.256C530.95 193.706 531.947 194.034 532.974 194.232C535.113 194.555 540.378 192.883 541.028 196.069C541.258 197.17 540.485 198.204 539.703 199.056Z" fill="url(#paint15_linear_208_3294)"/>
<path d="M300.5 372.362L308.792 385.32C309.009 385.658 309.301 385.941 309.646 386.146C309.99 386.351 310.378 386.473 310.777 386.501C311.176 386.529 311.576 386.463 311.946 386.308C312.315 386.154 312.644 385.914 312.906 385.61L335.743 359.131C336.066 358.757 336.276 358.298 336.347 357.808C336.419 357.317 336.348 356.817 336.144 356.366C335.94 355.915 335.612 355.532 335.198 355.264C334.784 354.996 334.302 354.853 333.809 354.853H333.62C333.244 354.852 332.872 354.935 332.531 355.096C332.19 355.256 331.887 355.489 331.646 355.779L313.778 377.327C313.522 377.637 313.197 377.882 312.829 378.043C312.461 378.204 312.061 378.276 311.661 378.252C311.26 378.229 310.871 378.111 310.524 377.909C310.178 377.706 309.883 377.425 309.664 377.087L304.802 369.639C304.532 369.226 304.15 368.9 303.701 368.699C303.252 368.498 302.755 368.431 302.269 368.506C301.859 368.576 301.472 368.745 301.142 368.999C300.812 369.254 300.548 369.585 300.374 369.965C300.2 370.345 300.12 370.761 300.142 371.179C300.164 371.597 300.287 372.003 300.5 372.362ZM200.654 437.889L211.094 448.224C211.461 448.589 211.712 449.055 211.815 449.563C211.919 450.071 211.869 450.599 211.673 451.079C211.477 451.559 211.144 451.969 210.716 452.258C210.287 452.547 209.783 452.701 209.267 452.701H208.823C208.133 452.701 207.471 452.427 206.98 451.94L196.821 441.712C196.332 441.224 195.671 440.949 194.982 440.949C194.293 440.949 193.632 441.224 193.143 441.712L182.983 451.94C182.496 452.427 181.836 452.701 181.149 452.701H180.696C180.181 452.701 179.676 452.547 179.248 452.258C178.82 451.969 178.486 451.559 178.29 451.079C178.095 450.599 178.045 450.071 178.148 449.563C178.252 449.055 178.503 448.589 178.87 448.224L189.318 437.889C189.562 437.647 189.755 437.358 189.887 437.04C190.019 436.722 190.087 436.38 190.087 436.036C190.087 435.691 190.019 435.35 189.887 435.031C189.755 434.713 189.562 434.425 189.318 434.182L178.771 423.574C178.409 423.208 178.163 422.743 178.063 422.237C177.964 421.731 178.015 421.206 178.211 420.729C178.407 420.252 178.739 419.844 179.166 419.557C179.592 419.27 180.093 419.115 180.606 419.114C181.286 419.112 181.939 419.379 182.424 419.859L193.119 430.467C193.605 430.947 194.259 431.217 194.941 431.217C195.622 431.217 196.277 430.947 196.763 430.467L207.457 419.859C207.942 419.379 208.596 419.112 209.276 419.114C209.789 419.114 210.292 419.267 210.719 419.553C211.146 419.84 211.48 420.248 211.677 420.725C211.874 421.202 211.926 421.728 211.827 422.235C211.727 422.742 211.481 423.208 211.118 423.574L200.572 434.182C200.333 434.43 200.146 434.723 200.021 435.044C199.896 435.365 199.836 435.708 199.843 436.053C199.851 436.398 199.927 436.738 200.066 437.053C200.205 437.368 200.405 437.652 200.654 437.889Z" fill="#E81976"/>
<path d="M107.554 405.395H110.104L111.379 463.367L110.104 453.818H107.554V405.395Z" fill="#E81976"/>
<path d="M112.655 405.395H110.104V453.818H112.655V405.395Z" fill="#E81976"/>
<path d="M89.3651 412.204C87.9254 416.681 92.4747 425.543 96.8841 430.127C101.294 434.711 104.288 433.661 108.78 432.353C110.219 427.877 111.445 424.823 107.028 420.239C102.61 415.655 93.8568 410.897 89.3651 412.204Z" fill="#E81976"/>
<path d="M131.247 412.428C126.796 410.971 117.985 415.556 113.428 419.991C108.87 424.426 109.915 427.438 111.215 431.956C115.665 433.404 118.701 434.637 123.259 430.194C127.816 425.75 132.555 416.946 131.247 412.428ZM110.104 393.702H98.7188C98.7188 401.836 103.811 408.431 110.096 408.431L112.778 401.207L110.104 393.702Z" fill="#E81976"/>
<path d="M110.104 393.702H121.482C121.482 401.836 116.389 408.431 110.104 408.431V393.702ZM88.5506 377.112C87.1109 381.588 91.6602 390.459 96.0779 395.035C100.496 399.61 103.482 398.576 107.965 397.26C109.405 392.784 110.631 389.73 106.213 385.146C101.795 380.562 93.0423 375.804 88.5506 377.112Z" fill="#E81976"/>
<path d="M130.44 377.327C125.981 375.879 117.171 380.454 112.622 384.898C108.072 389.341 109.101 392.345 110.4 396.855C114.851 398.303 117.895 399.536 122.444 395.092C126.993 390.649 131.74 381.853 130.44 377.327Z" fill="#E81976"/>
<path d="M109.899 363.036C105.687 365.088 102.495 374.521 102.232 380.901C101.968 387.281 105.243 394.786 109.29 397.144C113.502 395.092 116.11 387.811 116.348 381.423C116.587 375.034 113.946 365.394 109.899 363.036Z" fill="#E81976"/>
<path d="M87.6045 446.429L91.6191 479.064H110.186L117.771 460.496L110.186 445.519L87.6045 446.429Z" fill="#E81976"/>
<path d="M132.777 446.429L128.762 479.064H110.187V445.519L132.777 446.429Z" fill="#E81976"/>
<path d="M118.463 445.742L118.257 445.841L111.956 448.986L110.236 449.863H85.1534C84.3964 449.863 83.6703 449.56 83.1349 449.022C82.5996 448.483 82.2988 447.753 82.2988 446.991V439.693C82.2988 438.932 82.5996 438.201 83.1349 437.663C83.6703 437.124 84.3964 436.822 85.1534 436.822H110.236L118.463 445.742Z" fill="#E81976"/>
<path d="M135.228 449.863H110.187V436.822H135.228C135.985 436.822 136.712 437.124 137.247 437.663C137.782 438.201 138.083 438.932 138.083 439.693V446.991C138.083 447.753 137.782 448.483 137.247 449.022C136.712 449.56 135.985 449.863 135.228 449.863Z" fill="#E81976"/>
<path d="M89.3651 412.204C87.9254 416.681 92.4747 425.543 96.8841 430.127C101.294 434.711 104.288 433.661 108.78 432.353C110.219 427.877 111.445 424.823 107.028 420.239C102.61 415.655 93.8568 410.897 89.3651 412.204Z" fill="url(#paint16_linear_208_3294)"/>
<path d="M131.247 412.428C126.796 410.972 117.986 415.556 113.428 419.991C108.871 424.426 109.915 427.438 111.215 431.956C115.666 433.405 118.701 434.637 123.259 430.194C127.816 425.75 132.555 416.946 131.247 412.428Z" fill="url(#paint17_linear_208_3294)"/>
<path d="M121.326 396.102C120.445 403.094 115.756 408.431 110.104 408.431V395.829C110.195 396.168 110.302 396.508 110.401 396.863C114.473 398.187 117.369 399.338 121.326 396.102Z" fill="url(#paint18_linear_208_3294)"/>
<path d="M88.5506 377.112C87.1109 381.588 91.6602 390.459 96.0779 395.035C100.496 399.61 103.482 398.576 107.965 397.26C109.405 392.784 110.631 389.73 106.213 385.146C101.795 380.562 93.0423 375.804 88.5506 377.112Z" fill="url(#paint19_linear_208_3294)"/>
<path d="M110.195 449.863V479.064H91.6194L88.0244 449.863H110.195Z" fill="url(#paint20_linear_208_3294)"/>
<path d="M132.358 449.863L128.763 479.064H110.195V449.863H132.358Z" fill="url(#paint21_linear_208_3294)"/>
<path d="M138.083 440.024V447.322C138.083 448.084 137.783 448.814 137.247 449.353C136.712 449.891 135.986 450.194 135.229 450.194H110.236V437.153H135.27C136.02 437.164 136.735 437.471 137.262 438.008C137.788 438.546 138.083 439.27 138.083 440.024Z" fill="url(#paint22_linear_208_3294)"/>
<path opacity="0.18" d="M93.7832 479.106L46.5956 488.208C45.832 488.288 45.1313 488.67 44.6476 489.27C44.1639 489.869 43.937 490.638 44.0166 491.406C44.0962 492.174 44.476 492.879 45.0722 493.365C45.6685 493.852 46.4325 494.08 47.1962 494H580.162C580.913 494.031 581.647 493.767 582.207 493.263C582.767 492.759 583.11 492.055 583.162 491.301C583.215 490.547 582.973 489.802 582.488 489.224C582.003 488.647 581.313 488.282 580.566 488.208L511.783 479.503H511.388L94.3838 479.089C94.1835 479.074 93.9823 479.08 93.7832 479.106Z" fill="#411F1D"/>
<path d="M122.444 395.101C122.057 395.473 121.687 395.812 121.325 396.102C117.368 399.337 114.472 398.187 110.4 396.863C110.302 396.507 110.195 396.168 110.104 395.829C108.969 391.865 108.418 388.994 112.621 384.906C117.171 380.463 125.981 375.887 130.44 377.335C131.74 381.853 127.001 390.665 122.444 395.101Z" fill="url(#paint23_linear_208_3294)"/>
</g>
<defs>
<linearGradient id="paint0_linear_208_3294" x1="524.419" y1="234.547" x2="382.477" y2="500.082" gradientUnits="userSpaceOnUse">
<stop offset="0.02" stop-opacity="0"/>
<stop offset="0.32" stop-color="#1F1716" stop-opacity="0.36"/>
<stop offset="0.76" stop-color="#473332" stop-opacity="0.82"/>
<stop offset="0.99" stop-color="#563F3D"/>
</linearGradient>
<linearGradient id="paint1_linear_208_3294" x1="333.842" y1="-57.4349" x2="317.996" y2="158.886" gradientUnits="userSpaceOnUse">
<stop offset="0.01"/>
<stop offset="0.1" stop-opacity="0.77"/>
<stop offset="0.99" stop-opacity="0"/>
</linearGradient>
<linearGradient id="paint2_linear_208_3294" x1="327.615" y1="227.563" x2="270.832" y2="-73.5085" gradientUnits="userSpaceOnUse">
<stop offset="0.01"/>
<stop offset="0.1" stop-opacity="0.77"/>
<stop offset="0.99" stop-opacity="0"/>
</linearGradient>
<linearGradient id="paint3_linear_208_3294" x1="252.613" y1="282.962" x2="-217.19" y2="284.336" gradientUnits="userSpaceOnUse">
<stop offset="0.03" stop-opacity="0"/>
<stop offset="0.62" stop-color="#382928" stop-opacity="0.66"/>
<stop offset="0.99" stop-color="#563F3D"/>
</linearGradient>
<linearGradient id="paint4_linear_208_3294" x1="522.387" y1="260.115" x2="394.751" y2="261.808" gradientUnits="userSpaceOnUse">
<stop stop-color="#68E2FD"/>
<stop offset="0.01" stop-color="#26D7FE"/>
<stop offset="0.12" stop-color="#5CB9CE"/>
<stop offset="0.24" stop-color="#5399A9"/>
<stop offset="0.37" stop-color="#8B4C63"/>
<stop offset="0.5" stop-color="#734656"/>
<stop offset="0.63" stop-color="#63424E"/>
<stop offset="0.79" stop-color="#594240"/>
<stop offset="0.99" stop-color="#563F3D"/>
</linearGradient>
<linearGradient id="paint5_linear_208_3294" x1="355.643" y1="103.872" x2="357.208" y2="127.479" gradientUnits="userSpaceOnUse">
<stop stop-color="#661834"/>
<stop offset="1" stop-color="#1AA3C1"/>
</linearGradient>
<linearGradient id="paint6_linear_208_3294" x1="355.643" y1="164.998" x2="357.208" y2="188.612" gradientUnits="userSpaceOnUse">
<stop stop-color="#661834"/>
<stop offset="1" stop-color="#1AA3C1"/>
</linearGradient>
<linearGradient id="paint7_linear_208_3294" x1="366.996" y1="164.998" x2="368.552" y2="188.612" gradientUnits="userSpaceOnUse">
<stop stop-color="#661834"/>
<stop offset="1" stop-color="#1AA3C1"/>
</linearGradient>
<linearGradient id="paint8_linear_208_3294" x1="378.34" y1="164.998" x2="379.896" y2="188.612" gradientUnits="userSpaceOnUse">
<stop stop-color="#661834"/>
<stop offset="1" stop-color="#1AA3C1"/>
</linearGradient>
<linearGradient id="paint9_linear_208_3294" x1="355.643" y1="288.101" x2="357.208" y2="311.716" gradientUnits="userSpaceOnUse">
<stop stop-color="#661834"/>
<stop offset="1" stop-color="#1AA3C1"/>
</linearGradient>
<linearGradient id="paint10_linear_208_3294" x1="366.996" y1="288.101" x2="368.552" y2="311.716" gradientUnits="userSpaceOnUse">
<stop stop-color="#661834"/>
<stop offset="1" stop-color="#1AA3C1"/>
</linearGradient>
<linearGradient id="paint11_linear_208_3294" x1="378.34" y1="288.101" x2="379.896" y2="311.716" gradientUnits="userSpaceOnUse">
<stop stop-color="#661834"/>
<stop offset="1" stop-color="#1AA3C1"/>
</linearGradient>
<linearGradient id="paint12_linear_208_3294" x1="578.459" y1="192.644" x2="501.974" y2="162.991" gradientUnits="userSpaceOnUse">
<stop stop-color="#D45985"/>
<stop offset="0.16" stop-color="#EDCBD7"/>
<stop offset="0.42" stop-color="#DEEFD1"/>
<stop offset="0.7" stop-color="#9AE45F"/>
</linearGradient>
<linearGradient id="paint13_linear_208_3294" x1="480.432" y1="215.92" x2="494.359" y2="215.92" gradientUnits="userSpaceOnUse">
<stop stop-color="#D45985"/>
<stop offset="0.42" stop-color="#DEEFD1"/>
<stop offset="1" stop-color="#9AE45F"/>
</linearGradient>
<linearGradient id="paint14_linear_208_3294" x1="485.671" y1="263.781" x2="497.296" y2="263.781" gradientUnits="userSpaceOnUse">
<stop stop-color="#D45985"/>
<stop offset="0.42" stop-color="#DEEFD1"/>
<stop offset="1" stop-color="#9AE45F"/>
</linearGradient>
<linearGradient id="paint15_linear_208_3294" x1="525.628" y1="205.85" x2="493.716" y2="243.109" gradientUnits="userSpaceOnUse">
<stop stop-color="#D45985"/>
<stop offset="0.42" stop-color="#DEEFD1"/>
<stop offset="1" stop-color="#9AE45F"/>
</linearGradient>
<linearGradient id="paint16_linear_208_3294" x1="106.871" y1="405.038" x2="94.0627" y2="433.008" gradientUnits="userSpaceOnUse">
<stop offset="0.01"/>
<stop offset="0.1" stop-opacity="0.77"/>
<stop offset="0.99" stop-opacity="0"/>
</linearGradient>
<linearGradient id="paint17_linear_208_3294" x1="137.129" y1="424.526" x2="98.3168" y2="419.577" gradientUnits="userSpaceOnUse">
<stop offset="0.01"/>
<stop offset="0.1" stop-opacity="0.77"/>
<stop offset="0.99" stop-opacity="0"/>
</linearGradient>
<linearGradient id="paint18_linear_208_3294" x1="138.256" y1="385.237" x2="89.5848" y2="415.516" gradientUnits="userSpaceOnUse">
<stop offset="0.01"/>
<stop offset="0.1" stop-opacity="0.77"/>
<stop offset="0.99" stop-opacity="0"/>
</linearGradient>
<linearGradient id="paint19_linear_208_3294" x1="129.757" y1="350.376" x2="77.16" y2="411.132" gradientUnits="userSpaceOnUse">
<stop offset="0.01"/>
<stop offset="0.1" stop-opacity="0.77"/>
<stop offset="0.99" stop-opacity="0"/>
</linearGradient>
<linearGradient id="paint20_linear_208_3294" x1="77.4533" y1="457.898" x2="131.712" y2="472.91" gradientUnits="userSpaceOnUse">
<stop offset="0.01"/>
<stop offset="0.1" stop-opacity="0.77"/>
<stop offset="0.99" stop-opacity="0"/>
</linearGradient>
<linearGradient id="paint21_linear_208_3294" x1="117.04" y1="444.037" x2="133.545" y2="522.691" gradientUnits="userSpaceOnUse">
<stop offset="0.01"/>
<stop offset="0.1" stop-opacity="0.77"/>
<stop offset="0.99" stop-opacity="0"/>
</linearGradient>
<linearGradient id="paint22_linear_208_3294" x1="124.337" y1="426.942" x2="123.829" y2="466.238" gradientUnits="userSpaceOnUse">
<stop offset="0.01"/>
<stop offset="0.1" stop-opacity="0.77"/>
<stop offset="0.99" stop-opacity="0"/>
</linearGradient>
<linearGradient id="paint23_linear_208_3294" x1="103.177" y1="367.918" x2="143.481" y2="412.227" gradientUnits="userSpaceOnUse">
<stop offset="0.01"/>
<stop offset="0.1" stop-opacity="0.77"/>
<stop offset="0.99" stop-opacity="0"/>
</linearGradient>
<clipPath id="clip0_208_3294">
<rect width="601" height="494" fill="white"/>
</clipPath>
</defs>
</svg>
