<svg width="42" height="53" viewBox="0 0 42 53" fill="none" xmlns="http://www.w3.org/2000/svg">
<path d="M0 26.5001C0 21.6241 4.704 17.6667 10.5 17.6667H21V35.3334H10.5C4.704 35.3334 0 31.3761 0 26.5001Z" fill="#A259FF"/>
<path d="M0 8.83333C0 3.95733 4.704 0 10.5 0H21V17.6667H10.5C4.704 17.6667 0 13.7093 0 8.83333Z" fill="#F24E1E"/>
<path d="M21 0H31.5C37.296 0 42 3.95733 42 8.83333C42 13.7093 37.296 17.6667 31.5 17.6667H21V0Z" fill="#FF7262"/>
<path d="M42 26.5001C42 31.3761 37.296 35.3334 31.5 35.3334C25.704 35.3334 21 31.3761 21 26.5001C21 21.6241 25.704 17.6667 31.5 17.6667C37.296 17.6667 42 21.6241 42 26.5001Z" fill="#1ABCFE"/>
<path d="M10.5 52.6667C16.296 52.6667 21 48.7093 21 43.8333V35H10.5C4.704 35 0 38.9573 0 43.8333C0 48.7093 4.704 52.6667 10.5 52.6667Z" fill="#0ACF83"/>
</svg>
