<svg width="60" height="47" viewBox="0 0 60 47" fill="none" xmlns="http://www.w3.org/2000/svg">
<path d="M60.001 41.0312C60.0071 41.8573 59.7644 42.6748 59.2892 43.4296C58.8139 44.1845 58.1168 44.8593 57.2442 45.4096C56.3716 45.9598 55.3433 46.3727 54.2276 46.6211C53.1118 46.8694 51.934 46.9475 50.7723 46.8501C46.5432 46.4083 43.4443 43.8099 43.5474 40.7921V6.09765C43.4452 3.07675 46.5519 0.476851 50.7863 0.0397837C51.947 -0.0561617 53.1232 0.022986 54.2373 0.271992C55.3514 0.520998 56.378 0.934187 57.249 1.48423C58.1201 2.03427 58.8158 2.70863 59.2902 3.46271C59.7647 4.21679 60.0069 5.03339 60.001 5.85852V41.0312Z" fill="#F9AB00"/>
<path d="M8.2268 35.2819C12.7704 35.2819 16.4536 37.8828 16.4536 41.0908C16.4536 44.2991 12.7704 46.8998 8.2268 46.8998C3.6832 46.8998 0 44.2991 0 41.091C0 37.8828 3.6832 35.2819 8.2268 35.2819ZM29.8732 17.6756C25.3083 17.8523 21.7662 20.5561 21.8723 23.7836V39.3871C21.8723 43.6217 24.5112 46.1925 28.3774 46.7404C29.5761 46.912 30.8138 46.893 32.0008 46.6849C33.1877 46.4767 34.2942 46.0847 35.24 45.5371C36.1857 44.9895 36.9469 44.3001 37.4685 43.519C37.9901 42.7379 38.2589 41.8846 38.2554 41.021V23.5147C38.2574 22.7407 38.0411 21.9743 37.6192 21.26C37.1972 20.5458 36.578 19.898 35.7978 19.3545C35.0175 18.8109 34.0918 18.3826 33.0746 18.0944C32.0574 17.8061 30.9691 17.6637 29.8732 17.6756Z" fill="#E37400"/>
</svg>
