<svg width="64" height="53" viewBox="0 0 64 53" fill="none" xmlns="http://www.w3.org/2000/svg">
<g clip-path="url(#clip0_197_4888)">
<path d="M11.3335 0.662598H52.6665C58.9335 0.662598 64 4.85829 64 10.0482V42.952C64 48.1419 58.9335 52.3376 52.6665 52.3376H11.3335C5.0665 52.3376 0 48.1419 0 42.952V10.0482C0 4.85829 5.0665 0.662598 11.3335 0.662598Z" fill="#001E36"/>
<path d="M22.9339 13.802C22.1339 13.802 21.3339 13.802 20.5074 13.8244C19.6804 13.8463 18.9069 13.8463 18.1869 13.8687C17.4669 13.8906 16.8004 13.8906 16.1604 13.9126C15.5469 13.9345 15.1204 13.9345 14.6669 13.9345C14.4804 13.9345 14.4004 14.0227 14.4004 14.1776V36.9013C14.4004 37.1001 14.5069 37.1887 14.7204 37.1887H19.8939C20.0804 37.1663 20.2139 37.0338 20.1869 36.8794V29.7906C20.6934 29.7906 21.0669 29.7906 21.3339 29.8126C21.6004 29.8345 22.0269 29.8345 22.6669 29.8345C24.8539 29.8345 26.8539 29.6357 28.6669 29.0838C30.4004 28.5538 31.8939 27.6263 32.9604 26.3895C34.0269 25.1531 34.5604 23.5851 34.5604 21.6858C34.5604 20.692 34.3474 19.7426 33.9474 18.8151C33.5238 17.87 32.8598 17.0114 32.0004 16.2976C30.9863 15.4817 29.7656 14.863 28.4269 14.4864C26.9334 14.0227 25.1204 13.802 22.9339 13.802ZM23.5289 18.1517C24.4789 18.1666 25.4039 18.3041 26.2669 18.5939C27.0404 18.837 27.6804 19.2788 28.1339 19.8527C28.5597 20.4465 28.7726 21.1284 28.7474 21.8187C28.7474 22.7901 28.4804 23.5412 27.9204 24.0931C27.3334 24.6451 26.5869 25.0649 25.7339 25.2637C24.7469 25.5287 23.7069 25.6608 22.6669 25.6608H21.2534C20.9334 25.6608 20.5874 25.6388 20.2139 25.6169V18.1969C20.4004 18.1745 20.7739 18.1526 21.3074 18.1749C21.8139 18.1526 22.4269 18.1526 23.1204 18.1526C23.2569 18.1497 23.3934 18.1492 23.5289 18.1517ZM45.8939 19.2792C44.0004 19.2792 42.4269 19.5219 41.1739 20.0519C40.0274 20.4937 39.0404 21.2001 38.3739 22.0833C37.7874 22.9006 37.4669 23.8058 37.4669 24.7556C37.444 25.5368 37.6548 26.3106 38.0804 27.0081C38.5792 27.7507 39.2717 28.3919 40.1074 28.8851C41.2805 29.5494 42.5535 30.0839 43.8939 30.4751C45.2004 30.8945 46.0804 31.2258 46.5074 31.5127C46.9339 31.8001 47.1474 32.087 47.1474 32.3963C47.1474 32.7938 46.8539 33.1694 46.4274 33.3238C45.9474 33.5226 45.2274 33.6331 44.2139 33.6331C43.1474 33.6331 42.0804 33.5226 41.0669 33.3019C39.9033 33.0864 38.7876 32.7213 37.7604 32.2199C37.6804 32.1756 37.6004 32.1537 37.5204 32.198C37.4404 32.2419 37.4139 32.3301 37.4139 32.3963V36.2388C37.3874 36.4156 37.5204 36.5701 37.7074 36.6582C38.5721 36.9928 39.4868 37.2305 40.4274 37.3651C41.6274 37.5638 42.8269 37.652 44.0534 37.652C45.9734 37.652 47.5739 37.4094 48.8804 36.9456C50.0804 36.5481 51.1204 35.8637 51.8669 34.9801C52.5657 34.1113 52.9285 33.0868 52.9069 32.0431C52.9329 31.2546 52.7223 30.4731 52.2939 29.7687C51.7869 29.0176 51.0669 28.3994 50.1869 27.9356C48.8995 27.2662 47.5211 26.725 46.0804 26.3233C45.437 26.1028 44.8052 25.8597 44.1869 25.5945C43.8404 25.4401 43.5204 25.2413 43.2804 24.9983C43.1204 24.8214 43.0139 24.6231 43.0139 24.4244C43.0139 24.2256 43.0939 24.0049 43.2269 23.8281C43.4139 23.6074 43.7069 23.4526 44.0534 23.3863C44.5604 23.2762 45.1204 23.2095 45.6534 23.2314C46.6669 23.2314 47.6534 23.342 48.6404 23.5188C49.5474 23.6733 50.4004 23.9163 51.2004 24.2699C51.3069 24.3138 51.4404 24.3138 51.6804 24.2699C51.7222 24.2444 51.7561 24.2111 51.7793 24.1727C51.8025 24.1342 51.8143 24.0918 51.8139 24.0488V20.4494C51.8139 20.3608 51.7869 20.2726 51.7604 20.1844C51.7069 20.0962 51.6004 20.0076 51.4939 19.9856C50.7585 19.7365 49.9878 19.5658 49.2004 19.4776C48.1054 19.3455 47.0004 19.2795 45.8939 19.2792Z" fill="#31A8FF"/>
</g>
<defs>
<clipPath id="clip0_197_4888">
<rect width="64" height="53" fill="white"/>
</clipPath>
</defs>
</svg>
